<?xml version="1.0" encoding="UTF-8" standalone="no"?>
<!-- Created with Inkscape (http://www.inkscape.org/) -->

<svg
   xmlns:dc="http://purl.org/dc/elements/1.1/"
   xmlns:cc="http://creativecommons.org/ns#"
   xmlns:rdf="http://www.w3.org/1999/02/22-rdf-syntax-ns#"
   xmlns:svg="http://www.w3.org/2000/svg"
   xmlns="http://www.w3.org/2000/svg"
   xmlns:sodipodi="http://sodipodi.sourceforge.net/DTD/sodipodi-0.dtd"
   xmlns:inkscape="http://www.inkscape.org/namespaces/inkscape"
   version="1.1"
   id="svg3713"
   width="605.49323"
   height="621.1731"
   viewBox="0 0 605.49323 621.1731"
   sodipodi:docname="icon_vector_min.svg"
   inkscape:version="0.92.4 (5da689c313, 2019-01-14)"
   inkscape:export-filename="C:\Users\zvecr\Desktop\icon_vector_min.png"
   inkscape:export-xdpi="96"
   inkscape:export-ydpi="96">
  <metadata
     id="metadata3719">
    <rdf:RDF>
      <cc:Work
         rdf:about="">
        <dc:format>image/svg+xml</dc:format>
        <dc:type
           rdf:resource="http://purl.org/dc/dcmitype/StillImage" />
        <dc:title />
      </cc:Work>
    </rdf:RDF>
  </metadata>
  <defs
     id="defs3717" />
  <sodipodi:namedview
     pagecolor="#ffffff"
     bordercolor="#666666"
     borderopacity="1"
     objecttolerance="10"
     gridtolerance="10"
     guidetolerance="10"
     inkscape:pageopacity="0"
     inkscape:pageshadow="2"
     inkscape:window-width="1920"
     inkscape:window-height="986"
     id="namedview3715"
     showgrid="false"
     inkscape:zoom="0.89571167"
     inkscape:cx="-61.39188"
     inkscape:cy="314.24952"
     inkscape:window-x="-11"
     inkscape:window-y="-11"
     inkscape:window-maximized="1"
     inkscape:current-layer="layer4"
     fit-margin-right="10"
     fit-margin-top="10"
     fit-margin-left="10"
     fit-margin-bottom="10" />
  <path
     inkscape:connector-curvature="0"
     id="path3737"
     d="m 158.66388,610.3014 c -16.85975,-1.04411 -31.49362,-3.84054 -54.88886,-10.48888 -27.153493,-7.71634 -32.925763,-9.72617 -42.910241,-14.94076 -10.221332,-5.3383 -11.19632,-6.11308 -17.616673,-13.99922 -7.561679,-9.28804 -9.80905,-15.20874 -9.869034,-26 -0.07236,-13.01854 3.439385,-23.93757 12.535967,-38.97791 2.653827,-4.38785 5.092986,-9.0451 5.420354,-10.34943 0.327368,-1.30434 -0.3648,-6.28601 -1.53815,-11.07039 -2.860163,-11.66241 -2.767555,-18.27587 0.344507,-24.60227 1.352771,-2.75 2.473657,-6.70543 2.490857,-8.78984 0.03299,-3.99833 2.658123,-10.07342 6.659857,-15.41227 2.095805,-2.79608 2.319385,-3.88921 1.763275,-8.62084 -0.492474,-4.19021 -0.14234,-6.86499 1.544378,-11.79789 8.17874,-23.91918 15.95877,-38.48679 29.57601,-55.37916 3.99029,-4.95 8.480403,-11.44222 9.978033,-14.42716 2.6527,-5.28712 2.71257,-5.79033 2.32035,-19.5 -0.45329,-15.84408 -0.5965,-16.27782 -9.347483,-28.31188 -2.89526,-3.98147 -7.40382,-12.16389 -10.019,-18.18316 l -4.75489,-10.94412 4.86177,-16.53937 c 0,0 6.72065,-3.26416 8.36368,-4.75639 10.501503,-22.92043 7.126033,-14.57691 10.099323,-22.1161 5.76294,-14.61271 10.39093,-15.24443 14.95473,-44.68827 1.73486,-11.19261 5.16152,-14.76102 4.31912,-17.99519 -1.91258,-7.34289 2.65701,-16.28908 4.63604,-24.99023 0,0 -36.139583,13.42501 3.74717,-34.82483 3.28362,-4.18376 8.74478,-14.90612 12.43326,-24.41128 11.4805,-29.58509 17.9908,-40.994465 29.57547,-51.831348 6.71182,-6.27858 10.51767,-8.377681 20.32018,-11.207498 15.62595,-4.510947 20.39048,-5.1824505 36.5,-5.144226 19.77986,0.04693 28.97941,2.049629 44.98152,9.792255 6.06016,2.932212 14.39348,6.760321 18.51848,8.506911 4.125,1.746589 11.55,5.577483 16.5,8.513096 4.95,2.935614 13.42403,7.898496 18.83118,11.028626 5.40715,3.130134 14.40715,9.387184 20,13.904574 5.59285,4.51738 16.24382,13.09937 23.66882,19.07109 7.425,5.97171 18,15.28597 23.5,20.69834 l 10,9.84067 14.5,0.0236 c 31.35117,0.051 56.53622,3.81264 96.92381,14.47666 35.053,9.25546 54.96731,19.03928 68.4965,33.65206 6.01325,6.49486 6.59318,7.53394 8.19122,14.67646 1.6297,7.284 1.62808,8.42026 -0.031,21.68674 -0.96296,7.7 -2.37585,16.7 -3.13976,20 -1.74037,7.51824 -10.06776,30.48558 -14.77961,40.76284 -1.95748,4.26957 -5.19759,12.59457 -7.20026,18.5 -4.04484,11.9274 -8.89345,22.01931 -17.40997,36.23716 -3.12979,5.225 -7.36214,12.49602 -9.40523,16.15782 -2.11441,3.78964 -5.63843,8.23417 -8.18019,10.31695 -2.45601,2.01252 -4.46548,4.25831 -4.46548,4.99063 0,4.18412 -14.44146,25.09494 -19.02534,27.54816 -1.08606,0.58125 -1.97466,1.63882 -1.97466,2.35018 0,2.88032 -6.34011,10.551 -14.2796,17.2764 -5.35442,4.53563 -11.38979,11.07809 -16.59882,17.99345 -4.50185,5.97653 -10.24285,12.44141 -12.75776,14.36641 -2.51492,1.925 -8.00807,6.32102 -12.207,9.76893 -4.19893,3.44791 -9.1475,6.68672 -10.99683,7.19734 -3.48623,0.96259 -12.98476,-0.26694 -16.46943,-2.13188 -1.39867,-0.74854 -2.67128,-0.33514 -5.5049,1.78824 -6.7525,5.06002 -19.35372,17.82924 -21.25907,21.54251 -2.55992,4.98894 -10.092,23.66431 -13.24283,32.83486 -6.14201,17.87642 -14.62677,41.96352 -16.72469,47.47913 -1.85572,4.87885 -4.03944,7.75375 -11.86665,15.62265 -10.55122,10.60741 -18.48486,15.26065 -31.09242,18.23631 -11.31161,2.66979 -17.38091,4.54601 -21.46144,6.63443 -2.17879,1.11512 -4.42879,2.02902 -5,2.03091 -1.17751,0.004 -10.77488,3.88549 -24.03856,9.72227 -25.84589,11.37366 -43.07248,15.40195 -73.87818,17.27577 -17.79658,1.08252 -24.14401,1.07171 -42.62182,-0.0726 z m 13.95808,-219.24841 c 0.0231,-0.45075 -0.97058,-0.67575 -2.20808,-0.5 -2.38148,0.33822 -3.46664,3.54167 -2.25005,6.64228 0.52683,1.34267 1.03297,0.97906 2.53717,-1.82273 1.03348,-1.925 1.89791,-3.8688 1.92096,-4.31955 z m 14.65433,2.78834 c 0.91218,-1.39216 1.35436,-2.83535 0.98263,-3.20709 -0.97456,-0.97455 -6.03569,2.31356 -6.41836,4.16988 -0.5321,2.58115 3.5923,1.85063 5.43573,-0.96279 z M 178.196,381.92357 c 4.34778,-1.81662 4.35704,-2.75659 0.0474,-4.8117 -3.36009,-1.60232 -3.44966,-1.58652 -5.07598,0.89557 -1.68561,2.57256 -1.42683,5.3651 0.49716,5.3651 0.58493,0 2.62405,-0.65204 4.53139,-1.44897 z"
     style="fill:#057f78;fill-opacity:1"
     sodipodi:nodetypes="cssssscssssssssssccccassccsssssssscsscssssccscsccscssscscccsssssccsscccscccsccscccscc" />
  <g
     inkscape:groupmode="layer"
     id="layer1"
     inkscape:label="shape"
     style="display:inline"
     sodipodi:insensitive="true"
     transform="translate(-38.198273,-44.80039)" />
  <g
     inkscape:groupmode="layer"
     id="layer3"
     inkscape:label="highlight"
     style="display:inline"
     sodipodi:insensitive="true"
     transform="translate(-38.198273,-44.80039)">
    <path
       style="fill:#0e544b"
       d="m 340,629.11394 c 0,-1.69541 7.08015,-4.31064 9.8131,-3.62471 2.42471,0.60856 2.19,0.82007 -2.83475,2.55449 -6.3074,2.17716 -6.97835,2.28006 -6.97835,1.07022 z m 52.91415,-25.23197 C 394.06137,601.89205 395,599.06459 395,597.59872 c 0,-1.46586 1.10144,-4.8388 2.44765,-7.49541 3.37661,-6.66342 7.82037,-20.0842 11.95418,-36.10331 4.64062,-17.98311 5.51058,-20.82783 6.56961,-21.48235 0.49356,-0.30504 1.60535,-2.98993 2.47064,-5.96642 1.06565,-3.66568 4.02971,-8.69692 9.18656,-15.59341 C 435.8257,499.99553 440.91107,494.886 447.392,491.10057 452.1231,488.33721 470,474.13542 470,473.1403 c 0,-0.36632 1.00987,-1.11025 2.24416,-1.65317 3.50031,-1.53967 3.17356,-3.50166 -1.87657,-11.26778 -5.02149,-7.72209 -7.70205,-9.10005 -9.33702,-4.79976 -0.55933,1.47116 -2.99949,3.46201 -6.22525,5.07898 -2.91792,1.46267 -5.98032,3.24755 -6.80532,3.96641 -0.825,0.71886 -3.8625,2.4909 -6.75,3.93787 -2.8875,1.44696 -5.25,3.21225 -5.25,3.92287 0,0.71061 -0.5738,2.07674 -1.27512,3.03585 -1.19092,1.62868 -1.73564,1.52576 -8.25,-1.55887 L 419.5,470.5 392,469.97099 c -29.77581,-0.57279 -31.94947,-0.94836 -36.96654,-6.38705 -1.90571,-2.06587 -2.23052,-3.04798 -1.42855,-4.31936 1.29071,-2.04621 3.55478,-2.71207 14.89509,-4.38061 l 9,-1.3242 -4.67162,-0.87374 -4.67162,-0.87375 -0.32838,-6.98612 c -0.18061,-3.84236 0.0758,-7.70432 0.5698,-8.58212 0.66738,-1.18591 0.18063,-2.16815 -1.89435,-3.82268 -1.87968,-1.49881 -2.58233,-2.77441 -2.14952,-3.90229 1.12045,-2.91986 -4.29397,-7.2559 -9.94173,-7.96164 -2.70192,-0.33764 -7.22198,-1.28243 -10.04457,-2.09956 -2.82259,-0.81712 -5.89386,-1.19331 -6.82505,-0.83598 -0.93118,0.35732 -3.79678,-0.27652 -6.36801,-1.40855 -2.57122,-1.13202 -10.43195,-3.89841 -17.46829,-6.14751 -22.30574,-7.12985 -40.18614,-17.43777 -56.60552,-32.63269 C 245.61166,366.80049 244.21991,366.66596 242.27459,376 c -0.74507,3.575 -1.57037,7.51306 -1.834,8.75125 -0.29204,1.37162 -1.93698,2.93487 -4.20996,4.00085 -3.33234,1.56282 -3.99754,2.54281 -6.23063,9.17922 -2.8909,8.59132 -5,10.34877 -5,4.16636 0,-2.23794 0.5161,-5.99861 1.14689,-8.35706 0.9999,-3.73852 0.87895,-4.89379 -0.94377,-9.01435 C 223.28141,380.38194 222.82792,380 219.59141,380 c -2.37042,0 -3.83663,-0.58968 -4.48677,-1.80449 -0.53116,-0.99246 -3.42616,-4.19586 -6.43335,-7.11866 -3.6198,-3.51822 -7.20302,-8.56916 -10.60261,-14.94552 C 195.24443,350.8341 192.55353,345.825 192.08889,345 c -0.46465,-0.825 -1.40688,-3.3 -2.09387,-5.5 -0.68698,-2.2 -1.7544,-4.63136 -2.37204,-5.40302 -0.62905,-0.78591 -1.18443,-5.61111 -1.26269,-10.9704 -0.11305,-7.74214 0.16667,-9.79141 1.46619,-10.74165 1.26367,-0.92402 1.62077,-3.13971 1.67568,-10.39707 0.0648,-8.56197 0.24633,-9.36363 2.5338,-11.18807 5.43789,-4.33715 12.44617,-10.559 17.17335,-15.24626 4.57233,-4.53371 4.93955,-5.24301 4.40065,-8.5 -0.32337,-1.95444 -0.59979,-5.35353 -0.61427,-7.55353 -0.0466,-7.07814 -0.98305,-7.32333 -8.64396,-2.26317 -7.98927,5.27704 -21.90472,12.10029 -35.35173,17.33425 -19.44764,7.56957 -27.00919,12.685 -31.03078,20.99249 C 136.63863,298.31222 135.15361,300 134.06578,300 131.78481,300 129,296.89055 129,294.34367 c 0,-2.76341 4.79834,-14.40774 6.94086,-16.84367 0.96751,-1.1 3.25941,-4.25 5.09312,-7 1.83371,-2.75 3.73377,-5.27167 4.22234,-5.60371 0.48857,-0.33204 1.27111,-2.13204 1.73896,-4 0.46786,-1.86796 2.09284,-6.77129 3.61107,-10.89629 2.2929,-6.22975 2.77708,-9.20932 2.85876,-17.59239 0.0719,-7.38494 0.52247,-10.7397 1.67933,-12.50531 0.97474,-1.48763 1.39787,-3.66066 1.10344,-5.66676 -0.26266,-1.78962 -0.009,-3.81854 0.56387,-4.50871 0.73272,-0.88288 0.49324,-3.62216 -0.80788,-9.24084 -2.07921,-8.97873 -3.79398,-11.01451 -16.0142,-19.01209 -11.70648,-7.66136 -18.17664,-10.4733 -24.11337,-10.47969 -2.95697,-0.003 -7.8513,-0.4067 -10.8763,-0.8967 -3.025,-0.49 -10.324761,-1.21528 -16.221691,-1.61173 l -10.721691,-0.72082 -3.599838,7.86752 c -1.979911,4.32714 -4.754343,11.87195 -6.165405,16.76625 -2.412137,8.36656 -2.532428,9.83175 -2.01144,24.5 0.378929,10.66862 1.170995,17.97254 2.505191,23.10127 1.073086,4.125 2.264011,9.3 2.6465,11.5 0.766725,4.41004 4.191304,13.50494 8.848656,23.5 3.490305,7.49048 15.375252,19.98768 25.122098,26.41626 7.41054,4.88765 19.64531,8.92002 24.55316,8.0923 5.53906,-0.93418 7.33017,0.99364 7.33017,7.88963 0,3.14385 -0.48565,6.20175 -1.07922,6.79532 -0.59357,0.59357 -2.95523,1.07922 -5.24814,1.07922 -3.64507,0 -4.6269,-0.52498 -7.81364,-4.17789 -2.95301,-3.385 -5.41959,-4.84088 -12.99697,-7.67134 C 95.493346,307.94949 91.033203,305.29487 83.485524,297.55452 75.467243,289.33154 72.117603,283.53646 65.233993,265.97825 57.030206,245.05263 54.744809,233.18691 53.007752,202.5 c -0.622663,-11 -1.816229,-24.07341 -2.652368,-29.05201 -1.354443,-8.06473 -1.356686,-9.8423 -0.02057,-16.29783 0.824825,-3.9852 2.076491,-7.94082 2.781479,-8.79028 1.105303,-1.33181 4.386897,-1.48891 23.832752,-1.14095 22.323489,0.39946 22.645675,0.43612 31.941345,3.634 9.23705,3.17772 15.29167,4.17872 46.04198,7.61206 7.3878,0.82486 13.89472,1.9621 14.45981,2.52719 0.70326,0.70326 0.48795,1.94073 -0.68237,3.92192 -0.94039,1.59197 -1.70981,3.811 -1.70981,4.93118 0,1.12018 -0.45,2.3148 -1,2.65472 -3.91815,2.42155 4.18251,9.0135 9.71635,7.90673 4.26723,-0.85345 15.46464,4.83598 20.12998,10.22808 2.00952,2.32255 4.69671,6.84236 5.97154,10.04401 5.00982,12.58181 5.75501,13.21931 19.59287,16.7614 l 9.91073,2.53686 8.08927,-1.95308 c 4.44909,-1.0742 12.36426,-2.2451 17.58926,-2.60201 9.36015,-0.63938 29.10758,0.77759 36,2.58318 1.925,0.50429 8.225,2.10885 14,3.56569 23.60605,5.95503 54.09005,16.93487 87.93257,31.67186 10.91941,4.75494 11.49366,4.89489 12.79343,3.11784 0.74847,-1.02331 1.60042,-2.98556 1.89321,-4.36056 2.05294,-9.64085 8.62151,-19.73345 17.24232,-26.4928 10.10882,-7.92607 9.38412,-6.49773 8.80196,-17.34807 C 435.03787,196.49885 433.8573,189.35328 432.0024,186 c -0.9913,-1.79209 -1.30122,-5.47323 -1.09447,-13 0.43436,-15.81252 0.55573,-18 0.99876,-18 0.95612,0 20.79469,20.20374 27.39223,27.89642 3.96059,4.61804 10.80108,12.05848 15.20108,16.53433 8.59688,8.74506 20.44816,24.12376 32.80514,42.56925 4.23723,6.325 11.15733,15.49271 15.378,20.3727 l 7.67394,8.8727 5.57146,-0.61793 c 3.0643,-0.33986 8.04646,-1.07077 11.07146,-1.62424 7.14545,-1.30739 13.16842,-0.37816 17.7643,2.74069 4.2876,2.90965 10.46715,5.25608 13.84237,5.25608 1.75486,0 2.51065,-0.701 2.96496,-2.75 0.33535,-1.5125 1.41622,-4.55 2.40195,-6.75 3.13366,-6.99392 7.04634,-19.88653 7.03621,-23.1849 -0.005,-1.7517 0.48655,-4.4517 1.09319,-6 1.0918,-2.78655 1.11176,-2.79228 1.96778,-0.5651 1.76127,4.58244 5.85952,2.21061 6.66254,-3.85588 0.34608,-2.61445 1.3279,-4.92335 2.42418,-5.70082 2.32108,-1.6461 2.39218,-5.78632 0.12119,-7.05722 -2.31229,-1.29403 -4.66425,-13.5458 -3.08563,-16.07358 1.67197,-2.67725 0.22636,-6.74042 -2.65547,-7.46371 -1.36391,-0.34232 -2.96927,-1.53692 -3.56747,-2.65466 -0.95994,-1.79365 -0.34696,-1.66154 5.22114,1.1253 15.9994,8.00774 30.80113,22.11486 30.81434,29.36831 0.003,1.68424 0.48242,4.77948 1.06524,6.87831 1.77827,6.40388 -2.59433,39.18808 -6.10051,45.73943 -0.52366,0.97847 -2.59117,6.42877 -4.59446,12.11178 -2.00329,5.683 -3.97948,10.78274 -4.39153,11.33274 -1.01097,1.34945 -9.42904,22.88404 -11.12645,28.463 -1.23412,4.05628 -1.72175,4.5379 -5.35073,5.28483 -7.6766,1.58004 -15.57766,5.04727 -17.96386,7.88311 -1.31335,1.56082 -3.31803,5.43238 -4.45484,8.60346 -1.13681,3.17108 -2.73879,6.8906 -3.55996,8.2656 -0.82116,1.375 -2.20411,4.075 -3.07323,6 -0.86911,1.925 -2.28791,5.075 -3.15289,7 -0.86498,1.925 -3.35204,6.57232 -5.52682,10.32737 -2.17477,3.75505 -3.74243,7.03907 -3.48369,7.29782 0.25875,0.25874 2.0296,-1.35108 3.93523,-3.57737 3.35847,-3.92362 6.79577,-5.34815 6.75096,-2.79782 -0.065,3.69831 -7.27125,15.74814 -13.62178,22.77742 -1.79158,1.98307 -4.92482,6.72565 -6.96276,10.53908 -4.92026,9.20689 -6.80905,11.86877 -13.25722,18.6835 -5.41705,5.72498 -8.13628,7.1346 -8.13628,4.21774 0,-2.24934 6.03367,-17.70386 7.63123,-19.54648 0.75282,-0.86831 1.36877,-1.97639 1.36877,-2.46241 0,-0.48602 -2.24419,1.32678 -4.9871,4.02844 -5.35306,5.27257 -8.37033,12.53741 -7.34353,17.68142 0.94602,4.73933 -7.25024,15.7375 -23.52903,31.57248 -8.05219,7.83266 -16.12518,14.95187 -17.93999,15.82048 -2.72732,1.30536 -4.43294,1.40285 -9.83334,0.56209 -6.94401,-1.08109 -9.78227,-2.59923 -8.9439,-4.78397 0.72053,-1.87769 -0.90452,-1.67151 -2.55067,0.32361 -0.75484,0.91487 -6.08143,5.45447 -11.83686,10.08801 -5.75543,4.63354 -11.3523,9.84751 -12.4375,11.5866 -4.69712,7.52743 -10.48901,19.78905 -13.06639,27.66199 -5.99354,18.30805 -10.26968,30.64786 -14.03456,40.5 -1.47124,3.85 -3.26568,8.8 -3.98765,11 -2.76466,8.42449 -5.39047,13.17271 -9.95418,18 -4.40279,4.65707 -4.58393,4.75186 -2.64115,1.38197 z M 542.93191,412.09563 C 546.0801,407.6744 545.34643,406.02454 542,410 c -1.62041,1.925 -2.9583,3.8375 -2.9731,4.25 -0.0605,1.68707 1.96559,0.56928 3.90501,-2.15437 z M 552,397.88197 c 0,-0.55 -0.45,-0.72189 -1,-0.38197 -0.55,0.33992 -1,1.06803 -1,1.61803 0,0.55 0.45,0.72189 1,0.38197 0.55,-0.33992 1,-1.06803 1,-1.61803 z m -195.03717,-1.77585 c 12.08064,-4.59028 24.94786,-19.21721 30.00294,-34.10612 0.65357,-1.925 2.46802,-6.95809 4.0321,-11.18464 4.53982,-12.2678 6.1743,-22.21207 5.75954,-35.04133 -0.69255,-21.42163 -6.17099,-32.93701 -18.68418,-39.27306 l -3.42676,-1.73515 3.06444,3.86709 c 1.68545,2.1269 5.54996,6.65174 8.58782,10.0552 9.11536,10.2124 10.44416,17.95211 6.1803,35.99752 -1.97011,8.33787 -4.24865,14.11883 -10.42771,26.45653 -4.34871,8.68305 -9.28429,17.78955 -10.96796,20.23668 -3.52571,5.12444 -17.20496,14.60795 -21.08336,14.61659 -1.375,0.003 -4.975,0.9542 -8,2.11363 -7.41347,2.84145 -15.51194,2.13706 -28,-2.43537 -19.75541,-7.23335 -26.07517,-11.29386 -39.20144,-25.18736 -8.89905,-9.41921 -9.92449,-10.7984 -14.11643,-18.98633 -4.2561,-8.31325 -4.95762,-6.09005 -1.57772,5 3.93326,12.90575 5.0093,14.69168 14.4645,24.00731 5.02824,4.95403 9.45527,9.99351 9.83783,11.19885 0.72224,2.27559 3.30282,3.5843 7.59326,3.85083 1.375,0.0854 8.35,2.2509 15.5,4.81217 16.62209,5.95437 23.69547,7.4485 35.73927,7.54931 7.29034,0.061 10.99257,-0.39468 14.72356,-1.81235 z m -5.22169,-75.62687 c 4.48148,-2.23566 5.62294,-3.93045 4.30534,-6.39241 -2.1785,-4.07056 -7.11004,-5.24428 -10.21774,-2.43185 -2.27701,2.06067 -2.35945,6.1011 -0.17375,8.51627 2.0044,2.21484 2.23989,2.22676 6.08615,0.30799 z M 220.83965,564.60686 c -1.21095,-2.4925 -2.8586,-4.78389 -3.66145,-5.09197 -0.80284,-0.30808 -4.20888,-0.0331 -7.56896,0.61104 -4.95388,0.94971 -6.64308,1.80501 -8.93204,4.52263 -3.64502,4.32763 -5.77479,4.23075 -8.76158,-0.39856 -2.37535,-3.68163 -2.57295,-3.7665 -10.83762,-4.65504 -5.57223,-0.59907 -9.34715,-0.55438 -11.1661,0.13219 -2.44014,0.92105 -3.09315,0.68107 -5.82992,-2.14257 -3.62107,-3.736 -3.76151,-4.65964 -1.07776,-7.0884 1.10232,-0.99758 2.47985,-3.65483 3.06119,-5.90498 0.58133,-2.25016 1.94575,-5.33254 3.03203,-6.84973 1.66802,-2.32971 1.81782,-3.34017 0.9636,-6.5 -2.12998,-7.87901 -6.1236,-10.52647 -8.28372,-5.49147 -0.6489,1.5125 -2.01178,3.97611 -3.02863,5.47468 -1.35161,1.99192 -1.67396,3.65675 -1.19862,6.1905 0.41493,2.21178 0.0307,5.33102 -1.06199,8.62071 -1.34451,4.04795 -2.37476,5.43348 -4.79776,6.45227 -3.62992,1.52627 -5.30467,1.09458 -5.99501,-1.54529 -0.27598,-1.05534 -1.67032,-2.36307 -3.09854,-2.90608 -4.00246,-1.52173 -3.14576,-3.97843 3.58714,-10.28657 l 6.1839,-5.79379 -1.65644,-5.17983 c -1.46181,-4.57118 -1.48316,-5.37129 -0.18172,-6.80936 0.81109,-0.89625 1.17373,-1.93052 0.80587,-2.29839 -1.39019,-1.39019 -3.45686,-0.55402 -7.37123,2.98238 -3.87061,3.49686 -4.01338,3.83864 -3.37678,8.08379 0.52888,3.5268 0.26754,4.97738 -1.27893,7.09877 -1.069,1.46642 -2.23663,3.45371 -2.59473,4.41621 -0.35809,0.9625 -1.08865,1.75 -1.62345,1.75 -1.91484,0 -2.12896,-1.97196 -0.60909,-5.60952 1.68352,-4.02923 1.12245,-5.93665 -0.92331,-3.13891 -0.70317,0.96164 -2.01638,1.74843 -2.91824,1.74843 -2.383,0 -2.07135,-3.77523 0.85854,-10.40023 2.06503,-4.66941 3.01885,-5.7532 5.5,-6.24943 3.25336,-0.65067 3.57734,-1.40624 1.92601,-4.49178 -0.96945,-1.81141 -0.87716,-1.9037 0.93425,-0.93425 3.86478,2.06836 6.80229,1.31197 8.44407,-2.17431 3.26177,-6.92626 5.68721,-16.56099 5.93676,-23.583 0.24674,-6.94272 0.11128,-7.46165 -2.54515,-9.75 -1.54317,-1.32935 -3.4736,-2.417 -4.28984,-2.417 -2.42082,0 -9.70563,4.0634 -12.51673,6.98172 C 131.88433,485.0996 125,496.49921 125,498.35448 c 0,0.68603 2.01596,3.24942 4.47991,5.69642 5.44585,5.4084 5.6833,6.9491 1.07098,6.9491 -4.31943,0 -8.13211,4.52887 -9.14494,10.86277 -0.40615,2.53996 -1.44695,4.7704 -2.54643,5.45704 -2.47682,1.54679 -2.34382,2.34182 0.51166,3.0585 2.71657,0.68182 8.04694,7.13613 7.12518,8.62757 -0.33792,0.54677 -1.95877,0.99412 -3.60189,0.99412 -2.25848,0 -3.40038,-0.71941 -4.6795,-2.94816 -0.93061,-1.62149 -2.70968,-3.41185 -3.95349,-3.97857 -2.75157,-1.25369 -2.83466,-2.98354 -0.38667,-8.0503 3.18531,-6.59283 5.47164,-17.50711 4.17494,-19.93001 -1.48911,-2.78243 -3.45892,-2.64362 -5.44238,0.38352 -1.30223,1.98746 -1.51078,4.11023 -1.05612,10.75 0.722,10.54379 0.20643,11.36066 -6.17673,9.78648 C 102.69353,525.35179 99.375,524.7292 98,524.62943 c -1.375,-0.0998 -3.7375,-1.00897 -5.25,-2.02043 -3.371926,-2.25492 -3.618426,-6.02281 -0.71586,-10.94229 1.118778,-1.89619 2.306722,-5.85941 2.639877,-8.80716 0.705117,-6.23889 2.283073,-9.76413 6.950513,-15.52785 C 104.00269,484.39496 105,482.14272 105,479.70882 105,475.86615 108.54273,467 110.07818,467 c 2.07064,0 2.0877,3.29185 0.0447,8.63047 -2.17119,5.67367 -2.6648,10.0214 -1.3576,11.95791 0.96963,1.43641 11.2081,8.41162 12.3469,8.41162 0.48829,0 0.88779,-0.9835 0.88779,-2.18555 0,-1.20205 0.89256,-3.13563 1.98346,-4.29685 1.10739,-1.17875 3.16693,-6.62704 4.66288,-12.33511 2.62432,-10.01358 2.64008,-10.25344 0.76654,-11.66499 -3.13138,-2.35922 -9.64993,-3.4101 -11.49162,-1.85261 -1.88311,1.59251 -3.92126,1.74599 -3.92126,0.29527 0,-0.57191 0.96791,-2.93441 2.15092,-5.25 1.41148,-2.76279 2.19958,-6.27284 2.29244,-10.21016 0.0778,-3.3 0.6879,-6.98847 1.35569,-8.19661 1.00124,-1.81139 0.94284,-2.34845 -0.33302,-3.06246 -0.93996,-0.52603 -1.29304,-1.52817 -0.89962,-2.55339 0.86686,-2.259 2.1574,-2.1331 2.92499,0.28536 1.14103,3.59507 18.85692,17.0271 22.45754,17.0271 2.42048,0 5.87708,-2.76288 7.58245,-6.0607 0.87923,-1.70025 2.32736,-2.9393 3.43527,-2.9393 3.17076,0 3.2368,1.69674 0.20201,5.19013 -1.58146,1.82043 -3.43788,4.3797 -4.12539,5.68727 -1.11787,2.12607 -0.94836,2.66852 1.60335,5.1311 1.72495,1.66469 5.65749,3.58389 9.94397,4.85296 6.74116,1.99582 7.17134,2.30482 8.72893,6.27008 1.61313,4.10661 1.594,4.26466 -1.24286,10.26963 -1.58466,3.35436 -3.38634,8.58638 -4.00372,11.62671 -0.69763,3.43547 -2.63612,7.75802 -5.12126,11.41963 -5.07789,7.48178 -5.80018,10.18814 -3.33293,12.48828 3.12174,2.9103 12.19155,6.26975 14.07754,5.21429 C 174.38221,519.64697 177.35814,506 175,506 c -1.83677,0 -0.99324,-3.45628 1.87678,-7.68991 2.43882,-3.59756 2.94031,-5.5512 3.54718,-13.81876 0.51528,-7.01969 0.37541,-10.02815 -0.5162,-11.10247 -0.80996,-0.97595 -0.88748,-1.80914 -0.22954,-2.46708 0.65795,-0.65795 3.83512,0.22603 9.40762,2.61745 12.2552,5.25928 18.93093,7.40837 23.09906,7.43618 2.0267,0.0135 4.9372,0.50071 6.46779,1.08264 4.18519,1.59121 26.40303,1.25108 31.54839,-0.48297 2.98644,-1.00647 5.67279,-3.06365 8.79892,-6.73814 C 267.76411,464.5355 278.36861,454 279.97341,454 c 0.89463,0 2.14958,0.52299 2.78879,1.1622 0.88294,0.88294 2.19252,0.21448 5.45,-2.78186 7.25385,-6.67235 16.46402,-11.68894 22.35746,-12.17767 6.65972,-0.55228 10.95661,0.9064 15.80987,5.36702 l 3.87952,3.56567 -0.49829,6.96429 c -0.4138,5.78342 -0.18142,7.36714 1.37047,9.34006 2.46782,3.13732 2.36379,4.03288 -0.73031,6.28677 l -2.59908,1.8933 0.72757,12.19011 c 0.63501,10.63941 0.949,12.19011 2.46824,12.19011 1.23219,0 1.91594,1.08009 2.34069,3.69749 0.71187,4.38675 0.14013,5.33912 -1.69697,2.82673 C 330.21663,502.57577 328,503.18427 328,505.52383 c 0,0.77319 -0.88247,1.87808 -1.96104,2.45532 -1.73591,0.92903 -1.89344,1.77335 -1.37223,7.35487 0.56945,6.09805 0.47776,6.43194 -2.78896,10.15569 -1.88075,2.14387 -3.40546,4.99377 -3.44024,6.43031 -0.25144,10.38439 -0.41965,11.11471 -2.81104,12.2043 -1.61731,0.7369 -2.97339,0.76039 -4.25641,0.0737 -1.3223,-0.70767 -3.05215,-0.60574 -5.80998,0.34236 -2.50183,0.86009 -6.12876,1.15158 -9.99358,0.80316 -7.64887,-0.68954 -16.47056,2.30855 -19.56026,6.64763 -1.12195,1.57564 -3.55293,3.36413 -5.40217,3.97444 -1.84924,0.6103 -4.16141,1.9927 -5.13816,3.072 -2.35875,2.60639 -4.08406,2.4748 -6.00574,-0.45807 -1.23748,-1.88862 -3.06762,-2.68521 -8.3298,-3.62561 -6.08253,-1.08701 -7.08155,-1.02164 -10.18713,0.66657 -1.8938,1.02948 -5.45664,2.54851 -7.91745,3.37562 -3.92549,1.31941 -4.61097,1.99439 -5.58953,5.50384 -1.57692,5.65533 -3.88283,5.69268 -6.59663,0.10686 z m -30.47549,-17.19653 c 1.57529,-1.97429 3.44037,-5.77394 4.14463,-8.44366 l 1.28048,-4.85404 -2.88317,-0.63325 c -4.10583,-0.90179 -4.62881,-2.49138 -1.6113,-4.89746 1.68733,-1.34543 3.33421,-4.39589 4.63459,-8.58449 1.10945,-3.57359 3.58058,-10.24861 5.49141,-14.83338 4.62839,-11.10517 6.19337,-18.14795 4.6666,-21.00074 -1.29414,-2.41812 -3.32573,-2.80016 -4.85685,-0.91331 -0.55788,0.6875 -4.01574,7.09524 -7.68412,14.23942 -3.66839,7.14418 -7.34827,13.73912 -8.17752,14.65543 -2.27191,2.51043 -4.24162,10.00386 -3.29619,12.53978 0.44796,1.20154 1.68691,2.65154 2.75322,3.22222 2.67822,1.43334 3.31723,3.62144 2.001,6.85183 -0.61432,1.50773 -1.45916,4.76632 -1.87741,7.24132 -0.41825,2.475 -1.08048,5.5125 -1.47162,6.75 -1.21586,3.84672 3.47637,2.93388 6.88625,-1.33967 z M 141.5,467 c 0,-5.44444 -0.0303,-5.5 -3,-5.5 -2.9288,0 -2.99361,0.1068 -2.73061,4.5 0.37113,6.19941 0.87571,7.1894 3.47614,6.82014 C 141.27275,472.53227 141.5,471.9456 141.5,467 Z m 45,-48.04535 c -12.47311,-3.25277 -12.9082,-3.44659 -13.51025,-6.01858 -0.4875,-2.08262 -1.23508,-2.47954 -5.15248,-2.73565 -3.95792,-0.25877 -5.00835,-0.82983 -7.70975,-4.19136 C 158.40738,403.86858 157,401.45042 157,400.63536 c 0,-0.81505 -1.04367,-2.75394 -2.31926,-4.30863 -1.27559,-1.5547 -3.40195,-5.97673 -4.72523,-9.82673 -2.04944,-5.9627 -2.42855,-9.07459 -2.55836,-21 -0.17047,-15.66009 -1.05055,-21.63591 -4.85587,-32.97177 -3.44749,-10.26989 -4.00508,-14.97712 -2.58462,-21.81947 1.4939,-7.19608 4.72898,-10.16881 10.01647,-9.20422 1.93978,0.35388 4.54259,1.2976 5.78402,2.09717 3.49162,2.24885 10.41813,11.58667 15.71727,21.18888 2.64354,4.79017 6.85692,11.61432 9.36307,15.16476 3.14867,4.4607 4.49083,7.31887 4.34369,9.25 -0.13004,1.70651 0.28235,2.79465 1.05911,2.79465 0.69964,0 3.2617,3.375 5.69348,7.5 2.43178,4.125 4.74606,7.5 5.14285,7.5 0.3968,0 1.70962,1.89586 2.9174,4.21302 1.20777,2.31716 3.0532,5.30285 4.10096,6.63486 1.04776,1.33201 1.90913,3.14865 1.91416,4.03698 0.005,0.88833 1.11596,3.86514 2.46873,6.61514 1.35277,2.75 2.47366,5.59252 2.49086,6.31672 0.0172,0.7242 1.20021,2.84928 2.6289,4.7224 2.2987,3.01374 2.51844,3.98149 1.90948,8.40916 -0.5462,3.97138 -1.38582,5.61605 -4.0703,7.97306 -6.06068,5.32135 -12.94973,6.15933 -24.93681,3.03331 z M 188.61862,390.25 c 2.72725,-2.6125 6.43867,-5.97753 8.2476,-7.47785 2.04194,-1.69359 3.13791,-3.39977 2.89056,-4.5 -0.32444,-1.44319 -1.13029,-0.99987 -4.3412,2.38819 -5.04969,5.32829 -10.36417,6.67885 -12.76929,3.24505 -1.43805,-2.0531 -1.8325,-2.14369 -4.08493,-0.93823 -2.0555,1.10007 -2.76993,1.10463 -4.06965,0.026 -2.73554,-2.2703 -3.53695,0.18995 -1.52542,4.68284 1.80038,4.02129 5.77687,7.19945 9.1137,7.284 0.869,0.022 3.81138,-2.09746 6.53863,-4.70996 z"
       id="path3729"
       inkscape:connector-curvature="0"
       transform="translate(-1.1378482,-6.8270703)" />
  </g>
  <g
     inkscape:groupmode="layer"
     id="layer4"
     inkscape:label="glasses"
     style="display:inline"
     transform="translate(-38.198273,-44.80039)">
    <path
       transform="translate(-1.1378482,-6.8270703)"
       style="display:none;fill:#162720"
       d="m 192.25,555.30418 c -2.92189,-2.01042 -2.83863,-3.09576 0.60277,-7.85718 C 195.44874,543.85529 198,536.47506 198,532.55718 c 0,-0.93076 -0.90512,-1.58084 -2.25,-1.61599 -2.18873,-0.0572 -2.19588,-0.0912 -0.26278,-1.25 1.09297,-0.65515 3.706,-2.85128 5.80674,-4.88028 3.37779,-3.26245 3.74634,-4.07919 3.18673,-7.06216 -0.98959,-5.27498 4.89571,-24.65871 9.67012,-31.84936 1.48005,-2.22908 1.82897,-2.30848 5.04065,-1.14712 1.8978,0.68625 4.20609,1.24773 5.12954,1.24773 2.45146,0 2.05162,1.90783 -0.6121,2.92058 -2.76045,1.04952 -4.21209,2.74144 -5.21603,6.07942 -0.41355,1.375 -2.49362,6.15008 -4.62239,10.6113 -2.12876,4.46121 -3.88479,9.18621 -3.90228,10.5 -0.0175,1.31378 -0.69146,3.2608 -1.49771,4.32669 -1.31765,1.742 -1.24428,2.17389 0.72548,4.27061 2.05927,2.19199 2.08927,2.43473 0.49771,4.0263 -1.59157,1.59156 -1.69368,1.5853 -1.69368,-0.10395 0,-0.99119 -0.56076,-1.61276 -1.25,-1.38556 -0.6875,0.22664 -1.53377,2.85164 -1.8806,5.83334 -1.26099,10.84087 -2.02848,13.10634 -5.01568,14.80536 -3.34791,1.90418 -3.72672,4.65435 -0.74836,5.43321 1.15794,0.30281 1.9243,1.09371 1.70302,1.75756 -0.61076,1.83228 -6.01811,1.97717 -8.55838,0.22932 z m -24.18661,-4.43987 c -0.0349,-0.89963 0.60884,-2.92463 1.43045,-4.5 0.82161,-1.57537 1.49661,-3.61511 1.5,-4.53275 0.003,-0.91764 1.58116,-2.64184 3.50616,-3.83156 4.61061,-2.84951 5.09823,-7.09963 1.17515,-10.24264 -1.681,-1.34675 -1.87899,-1.93564 -0.87151,-2.59217 0.71701,-0.46724 1.70331,-3.50805 2.19179,-6.75736 0.48848,-3.24931 1.36722,-7.48283 1.95276,-9.40783 0.89103,-2.92935 0.79138,-3.70121 -0.61117,-4.7341 -1.51713,-1.11726 -1.52915,-1.40128 -0.12699,-3 2.98242,-3.4005 4.79072,-8.20756 4.87758,-12.96624 0.0482,-2.63981 0.38568,-6.9039 0.75,-9.47574 l 0.66239,-4.67608 5.32819,2.53975 5.32819,2.53975 -2.44277,2.63633 C 190.17303,484.60556 185,495.19394 185,497.65223 c 0,0.7758 0.675,1.66956 1.5,1.98614 2.12899,0.81697 1.977,1.3586 -2.61743,9.32753 -5.4691,9.48602 -6.16394,12.89681 -4.05986,19.92863 2.25434,7.53397 1.80644,12.10547 -1.18607,12.10547 -2.63459,0 -4.67167,1.74513 -4.01986,3.44374 0.25327,0.66001 -0.69504,1.72652 -2.10736,2.37001 -1.41232,0.6435 -2.97618,2.18615 -3.47525,3.42812 -0.61762,1.537 -0.92764,1.73578 -0.97078,0.62244 z M 217,548.02024 c 0,-2.18887 0.7235,-5.78796 1.60777,-7.99797 1.87116,-4.6765 1.31673,-7.02227 -1.65972,-7.02227 -3.37845,0 -1.765,-2.26972 3.55429,-5 6.83132,-3.50638 10.07294,-9.15478 12.12681,-21.13052 0.88379,-5.15321 1.59874,-11.05698 1.58877,-13.11948 -0.0155,-3.20251 0.3031,-3.75 2.18199,-3.75 1.21005,0 2.72516,-0.52507 3.36692,-1.16683 0.88911,-0.88911 2.12839,-0.73323 5.20675,0.65492 4.32067,1.94835 18.11911,2.68513 23.27642,1.24286 2.274,-0.63594 2.75,-0.45419 2.75,1.05 0,1.00048 0.54,2.35905 1.2,3.01905 1.624,1.624 8.90869,1.51605 13.52976,-0.20049 2.07363,-0.77027 5.9743,-1.97239 8.66816,-2.67138 2.69385,-0.69898 6.91302,-2.80904 9.37592,-4.68902 2.4629,-1.87998 6.55834,-4.30987 9.10098,-5.39977 2.54263,-1.0899 6.05829,-3.07642 7.81259,-4.41448 1.83993,-1.40339 3.44725,-2.016 3.79845,-1.44774 0.33486,0.54181 0.86982,4.93111 1.18881,9.754 0.64669,9.77762 -0.76637,10.57954 -2.96238,1.68117 -0.93899,-3.80487 -1.70016,-4.98179 -3.3764,-5.22059 -2.64871,-0.37733 -3.94596,2.79986 -2.35611,5.77053 0.95648,1.78718 0.79553,2.03777 -1.30874,2.03777 -4.73232,0 -7.30475,13.95681 -3.45219,18.72993 1.18925,1.47341 -2.97039,6.83262 -7.38882,9.51963 -3.724,2.2647 -4.67867,4.96604 -5.03506,14.24724 l -0.29162,7.59432 -3.50167,-0.29556 c -2.85526,-0.241 -3.44819,-0.66476 -3.2119,-2.29556 0.15937,-1.1 0.28027,-5.10476 0.26866,-8.89946 -0.0197,-6.42804 0.2066,-7.1515 3.31134,-10.58808 3.13696,-3.47224 3.37402,-4.25523 4.04152,-13.34862 0.39,-5.31302 0.43045,-10.11088 0.0899,-10.66193 -1.10423,-1.78668 -4.88755,-1.04831 -10.17929,1.98664 -6.1173,3.50844 -6.07876,3.45646 -7.28729,9.82901 -1.34209,7.07683 -0.3316,12.09 2.71694,13.479 2.65407,1.20928 2.63612,0.76504 0.63472,15.70344 -0.59165,4.41602 -2.70283,8 -4.71251,8 -0.55895,0 -1.82358,0.73061 -2.81029,1.62357 -1.26494,1.14475 -4.47038,1.77617 -10.86902,2.141 -7.49605,0.42741 -9.2481,0.84088 -10.0699,2.37643 -0.5472,1.02245 -1.58816,1.859 -2.31324,1.859 -1.08084,0 -1.06628,-0.94574 0.0808,-5.25 1.36663,-5.128 1.29597,-10.97943 -0.18718,-15.5 -1.07929,-3.28963 2.80287,-3.06461 4.31311,0.25 1.30295,2.85968 2.96057,3.14842 5.74082,1 1.91145,-1.47706 1.91183,-1.52266 0.0252,-2.98156 -1.86449,-1.4418 -1.84612,-1.54625 0.68431,-3.89137 1.54603,-1.43281 2.84871,-3.97419 3.21313,-6.26844 0.3371,-2.12225 1.26667,-6.04781 2.0657,-8.72346 1.86541,-6.24658 1.83699,-9.64163 -0.10392,-12.41266 -1.64559,-2.34941 -6.77966,-3.10532 -7.97331,-1.17395 -0.44076,0.71316 -1.11293,0.66274 -2.1014,-0.15762 -2.09432,-1.73813 -3.27078,-0.16218 -5.42573,7.26813 -1.01146,3.48751 -2.51763,8.14093 -3.34704,10.34093 -0.82942,2.2 -1.52779,5.15734 -1.55193,6.57186 C 250.97339,524.20269 247.94165,532 246.406,532 c -1.8895,0 -1.77949,-3.02175 0.21359,-5.86728 1.56767,-2.23815 2.79131,-8.43246 4.02648,-20.38272 0.67884,-6.56778 -0.91385,-7.79675 -3.88784,-3 l -1.70501,2.75 -0.0419,-2.5 c -0.0605,-3.6066 -1.38931,-5.47954 -2.69415,-3.79733 -1.71214,2.20727 -8.21182,18.89348 -7.84085,20.12928 0.19285,0.64243 0.59767,2.60229 0.89961,4.35525 0.49636,2.88174 0.29014,3.21718 -2.15163,3.5 -2.20783,0.25572 -2.81808,0.95144 -3.34447,3.8128 -0.35413,1.925 -1.59696,5.28265 -2.76184,7.46144 C 225.95308,540.64023 225,542.97069 225,543.64024 225,544.90318 218.74505,552 217.63192,552 217.28437,552 217,550.20911 217,548.02024 Z m 65.75,-11.92725 c 3.6728,-7.75564 3.89982,-9.30031 1.69141,-11.50872 -2.48935,-2.48935 -10.56513,2.06434 -13.97259,7.87872 -3.86405,6.59351 -2.10199,9.70381 5.81535,10.26492 3.05647,0.21661 3.37688,-0.11218 6.46583,-6.63492 z M 466,484.8716 c 0,-0.62062 2.8756,-4.1767 6.39023,-7.90239 7.30693,-7.74572 9.96079,-13.50815 7.16323,-15.55378 -1.35448,-0.99042 -1.48666,-1.67173 -0.63357,-3.26575 0.59289,-1.10783 1.9587,-2.29376 3.03513,-2.6354 1.07643,-0.34165 3.1019,-1.98165 4.50106,-3.64445 2.87534,-3.41715 3.42059,-9.15963 1.17714,-12.39732 -0.75173,-1.08488 -1.68979,-5.03092 -2.08457,-8.76897 -0.85958,-8.13905 0.14645,-10.20287 6.65717,-13.6568 4.27973,-2.27039 4.49627,-2.28805 7.10423,-0.57924 1.47947,0.96938 2.68995,2.61077 2.68995,3.64751 0,1.03674 0.43844,1.88499 0.97432,1.88499 1.26065,0 4.02568,5.34598 4.02568,7.78336 0,1.03547 -1.35,6.08296 -3,11.21664 -2.02147,6.28945 -3,11.37841 -3,15.60188 0,3.44736 -0.40995,7.34616 -0.91099,8.66401 -1.49779,3.93948 -12.62026,14.39036 -16.04382,15.07507 -1.95182,0.39037 -3.48532,1.53092 -4.21676,3.13625 C 478.77552,485.78809 478.14645,486 472.33948,486 468.29891,486 466,485.5908 466,484.8716 Z m -37.66499,-13.93659 c -0.58574,-0.58574 -4.33198,-1.90533 -8.32499,-2.93243 -5.99537,-1.54216 -11.17292,-1.87665 -29.72327,-1.92024 -13.08099,-0.0307 -24.20151,-0.51548 -26.62501,-1.16059 C 359.76815,463.88532 356,461.49416 356,460.05982 c 0,-0.87781 17.31688,-3.08898 24.06634,-3.073 10.37983,0.0246 24.96462,-3.48576 30.04333,-7.23098 3.51737,-2.59382 42.05215,-15.63986 48.4,-16.38592 7.17418,-0.84319 8.29034,0.67179 6.59763,8.95498 -0.79269,3.87894 -2.16278,7.12505 -3.68461,8.72982 -1.33248,1.40509 -2.42269,3.08345 -2.42269,3.72967 0,0.64623 -1.9125,2.14569 -4.25,3.33213 -2.3375,1.18645 -6.14081,3.45228 -8.45179,5.0352 -2.31099,1.58291 -6.24849,3.75534 -8.75,4.82762 -2.50152,1.07227 -4.54821,2.41558 -4.54821,2.98512 0,1.35607 -3.3003,1.33524 -4.66499,-0.0294 z M 368.5,419.40608 c -10.92403,-0.78832 -18.94937,-2.71363 -21.20225,-5.08652 -2.66366,-2.80555 -8.92532,-3.21115 -10.76355,-0.69722 -1.06882,1.4617 -2.7993,1.07058 -17.47627,-3.95002 -8.9595,-3.0648 -17.13746,-6.33931 -18.17325,-7.27669 -1.0358,-0.93738 -4.94823,-3.10136 -8.6943,-4.80885 -8.95346,-4.08107 -19.79069,-10.99949 -17.85085,-11.39587 0.83196,-0.17 6.37721,2.52861 12.32278,5.99691 10.32598,6.02358 11.12425,6.312 17.82391,6.44003 3.85758,0.0737 11.73878,0.85286 17.51378,1.73142 5.775,0.87856 12.79052,1.60714 15.59004,1.61906 5.74709,0.0245 18.64615,-3.01487 23.54367,-5.54748 4.38788,-2.26905 13.19948,-10.72395 17.6045,-16.89183 C 383.19076,373.3046 384.7456,372 387.72335,372 c 2.5133,0 4.43715,3.32188 3.47489,6 -0.70386,1.95895 -12.00055,15.5278 -16.60608,19.94617 -1.97569,1.89539 -3.59216,3.80789 -3.59216,4.25 0,0.44211 4.18046,0.80383 9.2899,0.80383 9.50925,0 20.18418,-2.0759 22.50404,-4.37625 0.71167,-0.70568 1.68768,-5.09942 2.16893,-9.76386 0.64971,-6.29728 1.942,-11.03991 5.01923,-18.42035 5.27162,-12.64343 6.97929,-19.92211 7.02421,-29.93954 0.0401,-8.93709 2.98085,-18.98798 7.43715,-25.41842 2.93747,-4.23876 3.12195,-5.08158 1.1123,-5.08158 -3.74553,0 -9.01458,9.11933 -14.73363,25.5 -1.72552,4.9423 -4.09513,5.48747 -8.79146,2.02263 l -3.45938,-2.55226 -0.0356,-15.73518 c -0.0272,-11.99371 -0.44916,-17.10405 -1.77473,-21.49209 -2.86034,-9.46857 -7.59004,-17.70964 -13.2832,-23.14477 -3.67926,-3.51249 -5.85066,-6.60531 -6.98089,-9.94315 -0.90228,-2.66465 -1.40417,-5.08117 -1.1153,-5.37004 1.85161,-1.8516 17.2532,5.52639 25.1869,12.06555 1.68763,1.39099 5.28763,3.06848 8,3.72776 2.71237,0.65928 7.33299,2.31242 10.26805,3.67365 3.92037,1.81819 5.63196,2.17947 6.45,1.36143 0.7024,-0.7024 0.76277,-1.45891 0.16353,-2.04898 -1.3994,-1.37796 -30.45445,-16.19126 -41.39484,-21.10456 -5.19467,-2.33291 -11.62697,-5.52828 -14.29401,-7.10082 -5.75704,-3.39447 -6.77536,-3.49137 -9.02912,-0.85917 -2.04113,2.38387 -5.1946,2.54033 -10.07779,0.5 -1.9745,-0.825 -4.89936,-1.5 -6.49968,-1.5 -1.60032,0 -3.46987,-0.675 -4.15456,-1.5 -1.29926,-1.56551 -4,-2.06085 -4,-0.73363 0,0.4215 2.5875,2.30092 5.75,4.17649 13.22599,7.84387 33.37006,26.77565 40.60743,38.16362 l 1.85742,2.92266 -3.10742,1.08326 C 379.07575,292.82064 378,293.86502 378,295.12921 c 0,2.8407 -2.54074,3.33005 -4.92268,0.94811 C 371.93479,294.93479 370.39474,294 369.65499,294 c -0.73976,0 -2.1595,-0.9 -3.15499,-2 -2.55252,-2.82051 -4.05175,-2.49102 -2.11501,0.46482 2.37683,3.62749 1.96712,5.2146 -0.69944,2.70949 -3.23397,-3.03815 -4.55523,-2.73047 -6.31006,1.46943 l -1.52245,3.64374 -1.94855,-3.20413 c -1.57072,-2.58285 -2.38056,-3.07175 -4.17652,-2.52136 -3.83824,1.17627 -4.86012,2.60867 -4.53665,6.35915 0.2863,3.31944 0.0912,3.60256 -2.69132,3.90581 -4.09307,0.44607 -4.85645,1.44367 -4.67369,6.10766 0.12274,3.13243 -0.29735,4.24711 -1.92985,5.1208 -1.69836,0.90894 -1.97222,1.7272 -1.47147,4.39645 0.82195,4.38139 -0.0306,6.23233 -3.24175,7.03829 -4.49788,1.12889 -5.33265,2.32977 -3.72626,5.36044 1.91563,3.61407 7.92028,8.14941 10.78959,8.14941 1.29439,0 2.84138,0.48795 3.43777,1.08434 0.59639,0.59639 3.82839,1.33316 7.18222,1.63728 5.61751,0.50937 6.25417,0.81784 8.08193,3.91566 2.19566,3.72136 3.20124,4.09216 5.05151,1.86272 0.68469,-0.825 1.79565,-1.5 2.46881,-1.5 0.67315,0 2.6711,-0.72195 4.43988,-1.60434 1.76878,-0.88238 3.40216,-1.41814 3.62973,-1.19057 0.22757,0.22756 -0.47548,2.07288 -1.56233,4.10071 -1.08685,2.02782 -1.97609,4.36358 -1.97609,5.19058 0,1.789 3.1066,1.99702 4.78333,0.32029 1.57631,-1.57631 2.55413,-0.45528 1.76676,2.02551 -0.85,2.6781 -4.44194,7.15782 -5.7393,7.15782 -0.57423,0 -0.8015,-0.92753 -0.50504,-2.06117 0.76122,-2.91094 -1.92147,-3.62595 -4.60663,-1.22779 -4.77819,4.26748 -10.56454,6.3757 -15.64821,5.70133 -5.6615,-0.75103 -7.0007,0.48912 -4.55647,4.21948 1.50291,2.29375 2.19987,2.51068 7.08755,2.20602 6.30812,-0.39318 6.90994,0.72897 2.41801,4.50868 -1.65,1.38838 -3,3.05448 -3,3.70243 0,0.83296 -1.34439,0.9765 -4.58883,0.48997 -3.35975,-0.50383 -5.03377,-0.3014 -6.25,0.75576 -2.15589,1.87392 -14.75174,3.17677 -15.71076,1.62505 -0.39295,-0.63581 -1.90493,-0.87886 -3.4923,-0.56138 -1.79737,0.35947 -5.71536,-0.50436 -10.94632,-2.41342 -15.22062,-5.55484 -19.83982,-8.70038 -35.09174,-23.89644 -7.84943,-7.82067 -8.84945,-9.27223 -11.74526,-17.04852 -4.00194,-10.74665 -4.35704,-11.33482 -7.25648,-12.01928 -1.68975,-0.3989 -2.89422,-1.8741 -4.10098,-5.02275 -2.1769,-5.67995 -2.23008,-8.37053 -0.19876,-10.05637 1.31536,-1.09166 1.50542,-2.56639 1.01459,-7.87245 -1.59577,-17.25096 -1.59801,-17.25918 -5.95388,-21.77915 -2.25263,-2.3375 -4.677,-4.25 -5.38749,-4.25 -1.96211,0 -1.62075,9.0657 0.59425,15.78155 2.55316,7.74117 3.37849,13.79074 3.57695,26.21845 0.16839,10.54501 1.5489,15.86701 4.35308,16.78151 0.72384,0.23606 1.56382,-0.51821 1.86663,-1.67615 0.84721,-3.23975 2.15267,-2.50482 2.92137,1.64464 0.38209,2.0625 1.48641,6.06357 2.45405,8.89127 1.28791,3.76364 1.46225,5.43836 0.65061,6.25 -2.42962,2.42962 -4.44454,0.94708 -8.61184,-6.33642 -4.44428,-7.7676 -7.14332,-10.88194 -7.78392,-8.98163 -0.19898,0.59028 -1.7008,0.8767 -3.33738,0.63651 C 235.40641,337.83265 235,338.08898 235,340.0865 c 0,3.22143 -1.36217,1.48801 -3.99713,-5.0865 -1.21237,-3.025 -3.28902,-7.7664 -4.61477,-10.53644 -4.84606,-10.12543 -7.65234,-24.94728 -10.81189,-57.10478 -0.76418,-7.77767 -1.8713,-15.04164 -2.46027,-16.14214 C 211.09904,247.44803 200.41588,240 197.02723,240 c -1.24878,0 -5.65525,9.63711 -7.18586,15.71571 -1.59954,6.35233 -7.59884,12.03787 -15.73155,14.90878 -3.6354,1.28333 -7.00657,2.34282 -7.49149,2.35442 -1.44618,0.0346 0.0756,-7.98326 1.89731,-9.99619 1.49656,-1.65368 1.6415,-4.24662 1.29525,-23.17238 L 169.42102,218.5 l -3.27427,-7.67901 c -6.92842,-16.24891 -18.05038,-27.23427 -37.96557,-37.49925 -3.47535,-1.79131 -7.97535,-3.52664 -10,-3.85627 -2.02465,-0.32964 -5.25618,-1.2354 -7.18118,-2.01281 -5.60471,-2.26344 -18.627157,-5.44435 -25.027535,-6.11333 -7.161721,-0.74854 -11.366131,1.24154 -10.439119,4.94119 0.544026,2.17117 -7.857256,20.16062 -11.10974,23.789 -2.248898,2.50881 -3.642865,11.67995 -2.168167,14.26473 1.438697,2.52168 3.793392,30.50648 2.738076,32.54115 -0.809367,1.56048 0.980786,11.47358 3.815962,21.13118 1.934681,6.5902 6.000535,15.42809 9.197931,19.99342 2.329056,3.32549 3.789799,13.42308 1.852951,12.80878 -2.054471,-0.6516 -7.44589,-9.10492 -9.931086,-15.57116 C 57.191189,242.09436 55.978129,236.48489 53.983353,201.5 c -0.6272,-11 -1.756894,-23.825 -2.510431,-28.5 -1.14394,-7.09709 -1.152562,-9.71478 -0.05224,-15.86018 0.724805,-4.0481 1.939163,-7.75371 2.698572,-8.23469 2.264635,-1.43433 29.61587,-1.037 38.703124,0.56223 4.577309,0.80555 10.202312,2.35627 12.500002,3.44605 2.84585,1.34978 8.16244,2.33041 16.67762,3.07616 6.875,0.6021 16.1,1.50904 20.5,2.01543 4.4,0.50639 11.26736,1.22886 15.26079,1.6055 10.32917,0.97419 10.79688,1.55492 7.12615,8.84812 -1.91723,3.80925 -2.79269,6.78078 -2.42699,8.23784 0.7515,2.9942 7.33153,6.30354 12.53346,6.30354 3.95005,0 11.46527,3.11245 17.09054,7.0781 3.07604,2.16852 8.56708,12.09188 9.69504,17.52079 1.35835,6.53775 7.72234,9.90703 25.57834,13.54192 4.05541,0.82555 6.03655,0.62925 12,-1.18898 18.51269,-5.64444 41.63931,-4.0928 73.14267,4.9074 23.63808,6.75317 37.80165,11.16707 43.5,13.55625 3.575,1.49891 7.87859,3.1416 9.56354,3.65043 1.68494,0.50882 5.85461,2.27714 9.26593,3.92961 3.41131,1.65246 6.48632,3.00448 6.83335,3.00448 0.34702,0 6.14338,2.475 12.88079,5.5 6.73741,3.025 13.15676,5.5 14.26522,5.5 1.59223,0 2.16545,-0.89231 2.73019,-4.25 1.75249,-10.41966 10.51206,-22.76543 20.16718,-28.42371 3.87458,-2.27066 4.41717,-2.35329 6.38804,-0.97284 1.68725,1.1818 2.55478,1.25818 4.00482,0.35261 1.34843,-0.84211 2.15029,-0.85671 2.95322,-0.0538 0.80292,0.80292 0.29929,2.01797 -1.85487,4.47496 -4.77395,5.44505 -7.15931,10.54631 -8.12715,17.38044 -1.15843,8.18 0.11334,22.59739 2.28581,25.91299 3.11848,4.75941 4.39359,4.94198 28.61201,4.09672 12.39255,-0.43253 23.65692,-0.73224 25.03192,-0.66603 5.87982,0.28311 43.0004,-3.11297 48.33623,-4.42217 13.72248,-3.36697 15.44938,-3.21111 26.98182,2.43518 10.64065,5.20969 11.68195,6.19318 11.68195,11.0334 0,3.96117 -14.00294,18.41417 -19.5,20.12673 -5.39795,1.68169 -10.85062,4.48813 -12.43934,6.40243 -1.39152,1.67668 -5.59079,2.14237 -6.47131,0.71766 -0.29078,-0.47049 0.18438,-3.6652 1.0559,-7.09937 2.28646,-9.00959 1.53389,-9.57092 -12.40747,-9.25447 -5.90578,0.13406 -14.56278,0.68157 -19.23778,1.2167 -4.675,0.53513 -16.6,1.6799 -26.5,2.54393 -19.5345,1.70489 -23.97154,2.63682 -24.98166,5.24701 -0.72947,1.88499 3.42476,5.94782 9.48166,9.27306 5.07049,2.7837 28.40041,17.70336 36,23.02228 6.02747,4.21859 6.52216,4.84903 6.80478,8.67212 0.20862,2.82211 -0.51203,5.90853 -2.28423,9.78296 -1.46986,3.21344 -2.32906,6.4792 -1.98764,7.5549 0.44611,1.40557 -0.0614,2.14675 -1.96577,2.87078 -1.58957,0.60436 -2.56714,1.74706 -2.56714,3.00078 0,1.43307 -0.65751,2.02476 -2.25,2.02478 -2.24549,3e-5 -6.66792,4.58886 -8.09017,8.39459 -0.84619,2.26425 1.79801,5.60538 4.43614,5.60538 2.57763,0 2.84103,0.94042 1.82513,6.51627 -1.23978,6.80461 -2.79972,9.48373 -5.52199,9.48373 -1.37298,0 -3.10302,1.17981 -4.39911,3 -1.91325,2.68691 -2.689,3 -7.43324,3 -3.78523,0 -6.0237,-0.57158 -7.84307,-2.0027 -1.40031,-1.10149 -3.25474,-1.73075 -4.12096,-1.39835 -1.09746,0.42114 -1.90123,-0.25387 -2.65122,-2.2265 -0.59196,-1.55697 -0.69217,-2.9589 -0.22268,-3.11539 0.46949,-0.1565 2.39559,-1.11151 4.28021,-2.12225 5.81417,-3.11817 6.79894,-5.428 7.98691,-18.73374 1.27039,-14.22879 0.62938,-18.19121 -4.71627,-29.15394 -5.81257,-11.92024 -18.94694,-23.97987 -22.37901,-20.5478 -0.60388,0.60388 -0.18406,7.15184 1.14616,17.87679 1.78937,14.42697 1.94726,18.48349 1.07018,27.49479 -0.56589,5.81399 -1.57349,12.6071 -2.23911,15.09579 -1.44597,5.40634 -0.80853,7.52898 2.65665,8.84644 3.23207,1.22883 2.51436,2.49295 -2.29848,4.04839 -2.05484,0.6641 -7.78607,3.09125 -12.73607,5.39366 -12.6454,5.88182 -13.85127,6.2981 -24.5,8.4577 -9.29739,1.88553 -33.8546,3.26139 -44.5,2.49319 z M 268.84261,317.74386 c 1.77011,-5.49295 4.38772,-17.73314 5.87933,-27.49226 0.27539,-1.80174 -0.2061,-5.00438 -1.08115,-7.19134 -1.21947,-3.04775 -1.3389,-4.62781 -0.52605,-6.95957 0.79758,-2.28794 0.68083,-4.29499 -0.48333,-8.30867 -0.84422,-2.91061 -1.73342,-7.99202 -1.97601,-11.29202 -0.43356,-5.89776 -0.49515,-6.00542 -3.61432,-6.31829 -5.16664,-0.51823 -9.44627,3.51401 -11.94782,11.25715 -2.81273,8.70634 -2.64382,13.14761 0.7912,20.80362 1.58645,3.5359 3.20751,7.89977 3.60236,9.6975 0.39484,1.79772 1.63176,5.33452 2.7487,7.85955 1.69296,3.8272 1.93053,5.84778 1.42805,12.14572 -0.33151,4.15511 -1.17273,9.0375 -1.86938,10.84974 -1.07086,2.78571 -1.03692,3.44171 0.21959,4.24425 2.12113,1.35477 4.39366,-1.73859 6.82883,-9.29538 z M 190.305,416.67537 c -3.13977,-1.69772 -9.55588,-9.46042 -8.81293,-10.66254 C 181.83635,405.45577 182.7631,405 183.5515,405 c 0.78841,0 4.24936,-2.83457 7.69099,-6.29903 6.57077,-6.61438 13.10822,-11.22029 14.60907,-10.29271 0.48841,0.30185 1.44403,1.89115 2.1236,3.53177 1.08052,2.60861 0.96514,3.4205 -0.91945,6.46982 -1.18525,1.91779 -3.14517,3.77678 -4.35536,4.13108 -4.27613,1.25192 -10.52801,4.56758 -11.01747,5.84308 -0.2727,0.71066 0.20432,2.73775 1.06005,4.50464 1.84176,3.80282 0.74432,5.50742 -2.43793,3.78672 z M 158.18195,397.5 c -0.62649,-1.375 -1.56203,-2.5 -2.07898,-2.5 -0.51695,0 -1.96622,-3.0375 -3.22059,-6.75 -1.95114,-5.77465 -2.30065,-8.98968 -2.41886,-22.25 -0.14745,-16.54152 -1.05672,-22.62507 -5.20337,-34.81367 -3.00748,-8.84016 -3.50217,-18.91455 -1.16308,-23.68633 1.31816,-2.68905 1.92871,-2.98949 5.89048,-2.89864 3.94666,0.0905 4.87939,0.60889 8.71144,4.84152 2.36035,2.60708 6.86037,9.31147 10.00006,14.89864 3.13968,5.58716 7.52931,12.63348 9.75473,15.65848 3.45546,4.69699 4.04622,6.23001 4.04622,10.5 0,4.52519 0.2158,5.00259 2.27249,5.02725 1.69782,0.0204 3.17703,1.53766 5.84937,6 1.96728,3.28501 4.28117,6.76497 5.14198,7.73323 1.43066,1.60925 1.37918,1.95838 -0.59937,4.06445 C 193.97401,374.59211 193,376.37157 193,377.27927 193,378.89988 190.1961,381 188.03241,381 c -0.60449,0 -2.73937,-1.6403 -4.74418,-3.6451 l -3.6451,-3.6451 -2.25248,2.82488 c -1.88405,2.36282 -2.50197,2.61782 -3.77776,1.55901 -1.93198,-1.6034 -3.03066,-0.91354 -4.60737,2.89297 -1.00321,2.42198 -2.0321,3.15386 -5.1302,3.64927 -2.88335,0.46106 -3.87532,1.09404 -3.87532,2.47283 0,1.87752 1.7088,2.58771 7.5,3.11703 2.58495,0.23627 3.04335,0.72385 3.31336,3.52421 0.25628,2.65799 -0.0402,3.25 -1.62756,3.25 -1.0675,0 -2.50111,-0.675 -3.1858,-1.5 -0.68469,-0.825 -2.14604,-1.5 -3.24744,-1.5 -1.69173,0 -1.90943,0.46565 -1.40256,3 0.75585,3.77927 -1.51091,4.13703 -3.16805,0.5 z"
       id="path3725"
       inkscape:connector-curvature="0" />
    <path
       style="fill:#2c3539;fill-opacity:1"
       d="M 191.73812,557.34029 C 189.68215,555.87745 188,554.24369 188,553.70972 c 0,-0.53397 1.57204,-3.15903 3.49343,-5.83346 3.03406,-4.2232 5.40224,-10.54146 5.48212,-14.62626 C 196.989,532.5625 195.875,532 194.5,532 c -3.50502,0 -3.11597,-1.44658 1.25,-4.64779 5.89728,-4.32399 7.28158,-6.41538 6.63086,-10.01789 -0.92302,-5.11008 6.79667,-28.79987 10.68672,-32.79485 1.72778,-1.77439 2.33877,-1.8456 6.43508,-0.75 2.48932,0.66579 5.64458,1.21053 7.01169,1.21053 1.5428,0 2.48565,0.56898 2.48565,1.5 0,1.86652 6.66235,2.0666 10.5056,0.31549 2.16277,-0.98542 3.12228,-0.87581 5.70894,0.65217 2.44385,1.44362 5.05413,1.8168 12.19735,1.74382 4.99846,-0.0511 10.66311,-0.23205 12.58811,-0.40217 3.14915,-0.2783 3.5,-0.0587 3.5,2.19069 0,2.34864 0.30272,2.49305 5,2.38522 11.26624,-0.25864 20.47645,-2.9548 26,-7.61113 1.65,-1.39095 5.97637,-3.8782 9.61416,-5.52723 3.63778,-1.64903 6.92684,-3.50418 7.30901,-4.12255 0.38218,-0.61837 1.56831,-1.12431 2.63585,-1.12431 1.46714,0 1.94098,0.69554 1.94098,2.84912 0,1.56702 0.29103,6.29202 0.64674,10.5 0.54827,6.48603 0.41353,7.65088 -0.88499,7.65088 -0.84245,0 -2.28859,-1.15511 -3.21364,-2.56692 -1.34802,-2.05733 -1.96389,-2.33291 -3.10228,-1.38813 -0.7812,0.64834 -2.07934,0.92593 -2.88476,0.61686 -2.40552,-0.92308 -4.73733,4.97999 -3.97508,10.06305 0.35463,2.36485 1.04286,4.54576 1.5294,4.84645 1.35437,0.83705 1.05141,4.22996 -0.45798,5.129 -0.73842,0.43983 -2.1121,1.99435 -3.05263,3.45449 -0.94053,1.46014 -2.7544,2.91692 -4.03082,3.23728 -3.18661,0.79979 -4.5137,4.6868 -4.81668,14.10792 l -0.25728,8 -4.46374,0.31794 c -5.89047,0.41957 -7.04993,-1.16493 -6.32879,-8.64884 0.75049,-7.78858 -1.4662,-5.67483 -2.47002,2.35531 -0.69201,5.53579 -1.00476,6.07883 -5.07536,8.81259 -5.06347,3.40055 -9.53046,4.60609 -17.18985,4.63914 -4.27087,0.0184 -5.91713,0.47862 -7.24021,2.02386 -0.94185,1.1 -2.89432,2 -4.33882,2 -2.84498,0 -2.82051,0.42733 -0.48664,-8.5 1.58859,-6.07656 1.29031,-10.68282 -0.90657,-14 -1.81647,-2.74278 -1.98739,-2.8101 -1.99341,-0.78518 C 250.99947,532.10712 248.37524,534 245.06574,534 243.43182,534 243,533.36553 243,530.96482 c 0,-1.66935 0.77126,-4.21229 1.71392,-5.65096 0.94266,-1.43868 2.0217,-4.91035 2.39788,-7.71482 0.37617,-2.80447 1.02969,-6.89904 1.45226,-9.09904 0.68652,-3.57417 0.60006,-3.86147 -0.81214,-2.69871 -0.86925,0.71571 -2.78443,1.16571 -4.25597,1 -2.43198,-0.27387 -2.87965,0.24077 -4.91828,5.65398 -1.81414,4.81711 -2.0825,6.81312 -1.40418,10.44396 0.88607,4.74292 0.49473,5.6934 -2.57485,6.25371 -1.10836,0.20231 -2.05506,1.35699 -2.2699,2.76858 -0.2027,1.33183 -0.85515,3.00784 -1.4499,3.72447 -0.59475,0.71662 -2.06243,3.71683 -3.26151,6.66711 -2.39015,5.88083 -8.66172,12.26758 -11.12002,11.32424 -2.00083,-0.76779 -1.9992,-9.19189 0.003,-13.9831 1.90837,-4.56738 1.89846,-4.65424 -0.53138,-4.65424 -1.11727,0 -2.27992,-0.64767 -2.58369,-1.43926 -0.9165,-2.38838 1.18987,-4.92411 6.28053,-7.56074 6.18707,-3.2045 9.14374,-8.45796 10.88094,-19.33344 0.71746,-4.49161 1.58847,-9.07563 1.93557,-10.18671 0.92157,-2.95004 -4.26406,-6.6326 -7.95119,-5.64651 -2.19655,0.58745 -3.21259,2.02334 -5.4446,7.69444 -1.50925,3.83472 -3.72107,8.76556 -4.91514,10.95741 -1.19407,2.19186 -2.17104,5.36436 -2.17104,7.05 0,1.68565 -0.50208,3.56689 -1.11573,4.18054 -0.82097,0.82097 -0.68888,1.72514 0.5,3.42251 2.20634,3.14998 2.06009,4.02476 -1.24077,7.42192 -1.88563,1.94064 -3.40917,5.14907 -4.48255,9.43984 -1.00299,4.00938 -2.46138,7.18663 -3.8061,8.29196 l -2.18005,1.79196 2.16612,1.51721 c 2.80184,1.96248 1.49228,4.73847 -2.96903,6.29369 -1.744,0.60785 -3.22134,1.10518 -3.2833,1.10518 -0.062,0 -1.79481,-1.19687 -3.85078,-2.65971 z m 89.3749,-20.56182 c 4.44922,-8.7212 4.3035,-12.60179 -0.42861,-11.41411 -3.48092,0.87366 -7.91168,4.78558 -10.17009,8.9792 -2.43674,4.52474 -0.96751,6.65644 4.5878,6.65644 3.52706,0 4.04158,-0.36135 6.0109,-4.22153 z M 264,524.06168 c 1.53557,-1.07695 2.81631,-3.25945 3.31995,-5.65751 0.45097,-2.14729 1.46347,-6.19372 2.25,-8.99206 C 271.97138,500.8682 271.10813,497 266.8,497 c -1.21159,0 -1.8,0.75185 -1.8,2.3 0,1.265 -0.50483,2.80483 -1.12186,3.42186 C 262.42742,504.17258 260,503.2365 260,501.22634 c 0,-2.53206 -1.3402,-0.4478 -2.61841,4.07211 -0.6535,2.31085 -1.84985,6.00155 -2.65857,8.20155 -0.80872,2.2 -1.68994,6.0752 -1.95827,8.61156 l -0.48787,4.61156 4.61156,-0.45406 c 2.53636,-0.24973 5.73656,-1.24305 7.11156,-2.20738 z m 33.35077,-9.80071 c 0.27088,-0.96853 0.79818,-5.75865 1.17178,-10.6447 l 0.67927,-8.88374 -2.85091,0.6946 c -1.568,0.38204 -4.50296,1.77514 -6.52214,3.0958 -3.08527,2.01794 -3.84339,3.24517 -4.74994,7.68913 -1.47109,7.21133 -0.32132,11.11528 3.49266,11.85899 3.46682,0.67603 8.08517,-1.32827 8.77928,-3.81008 z M 320.28975,486 c -0.28766,-1.1 -0.92053,-2 -1.40638,-2 -1.0332,0 -1.18684,2.3632 -0.2167,3.33333 1.311,1.31101 2.13712,0.63237 1.62308,-1.33333 z m -154.27322,67.51991 c -1.07212,-1.29182 -1.02883,-2.21814 0.24732,-5.29289 0.85079,-2.04986 2.06764,-5.12572 2.70411,-6.83524 0.63647,-1.70952 2.47906,-4.08549 4.09463,-5.27994 3.70712,-2.74078 3.6788,-3.61686 -0.23511,-7.273 l -3.17252,-2.96358 2.51068,-2.32803 c 1.7067,-1.58254 3.07822,-4.66314 4.28304,-9.62023 1.62579,-6.68908 1.63917,-7.38959 0.16185,-8.46984 -2.03115,-1.48521 -2.04249,-2.85378 -0.0374,-4.51782 3.19834,-2.65439 5.15398,-8.44349 5.71048,-16.90425 0.3071,-4.66901 0.12836,-9.26539 -0.39858,-10.25 C 181.27012,472.63621 181.27883,472 181.90942,472 183.72925,472 198,478.87881 198,479.75602 c 0,0.47839 -1.3396,2.15321 -2.97688,3.72183 -1.63729,1.56862 -3.49165,4.46532 -4.12081,6.4371 -0.62915,1.97178 -1.53955,4.01255 -2.02311,4.53505 -1.35588,1.46507 -1.04563,2.55 0.72921,2.55 2.37907,0 1.21178,3.42414 -4.16955,12.23095 -5.64533,9.23885 -6.56748,14.20683 -3.54486,19.09753 1.86791,3.02236 2.05605,4.35923 1.48226,10.53291 l -0.65719,7.07119 -4.84045,1.60774 c -3.36165,1.11656 -5.23049,2.42153 -6.11715,4.27148 -1.51507,3.1611 -3.94057,3.88226 -5.74494,1.70811 z m 304.58015,-65.57656 c -5.3511,-0.89643 -8.01104,-2.78503 -7.06436,-5.01581 0.33319,-0.78515 2.93723,-3.27432 5.78674,-5.5315 6.22415,-4.93032 10.49741,-12.2609 8.16475,-14.00628 -2.39989,-1.79569 -1.71122,-5.06572 1.59291,-7.5637 6.42851,-4.86007 7.92328,-6.94574 7.92328,-11.05542 0,-4.52037 -2.29113,-4.88085 -2.81646,-0.44314 -0.32444,2.74071 -3.45347,5.24174 -5.20421,4.15973 C 478.4407,448.15433 478,446.79936 478,445.47617 c 0,-3.046 -3.03717,-4.79274 -6.22562,-3.58049 -3.17475,1.20704 -4.53126,3.01973 -4.93589,6.59577 -0.23307,2.05979 -0.96137,3.09855 -2.33849,3.33535 -1.1,0.18915 -3.125,1.45765 -4.5,2.8189 -2.78569,2.75783 -12.75848,8.96703 -20.69838,12.88711 -2.85911,1.4116 -5.48726,3.47673 -5.84034,4.58919 -0.35308,1.11245 -1.16381,1.79053 -1.80162,1.50684 -13.20488,-5.87338 -12.06494,-5.69392 -39.42977,-6.20714 C 378.07845,467.1563 364.925,466.5001 363,465.96347 c -4.57882,-1.27641 -8.45584,-4.33318 -7.76834,-6.12479 0.53877,-1.40402 9.96335,-3.0747 24.76834,-4.39065 13.32537,-1.18443 25.80939,-4.0774 30.5,-7.06788 1.77051,-1.12878 11.12694,-4.45516 36.5,-12.97642 8.84091,-2.96912 13.87506,-6.0623 17.41079,-10.69789 3.72718,-4.88658 4.16738,-8.54641 1.6837,-13.99842 C 464.94252,408.17869 464,405.78297 464,405.3836 c 0,-0.39936 -0.7875,-1.6148 -1.75,-2.70096 -0.96926,-1.09379 -1.30386,-2.15219 -0.75,-2.37236 4.97379,-1.97716 10.19187,-5.25291 11.64484,-7.31028 2.66857,-3.77862 4.27637,-23.78701 2.46117,-30.62812 -1.93242,-7.28289 -6.98382,-17.10779 -11.52734,-22.42052 -4.72267,-5.52222 -11.82113,-10.63472 -13.00086,-9.36356 -0.46562,0.50171 0.0167,7.8872 1.07175,16.4122 1.05509,8.525 1.95852,16.85 2.00761,18.5 0.14782,4.96811 -1.99182,21.77177 -3.21673,25.26251 -1.50652,4.2933 -0.77392,5.8624 3.58802,7.68493 4.2818,1.78906 4.00465,2.59502 -1.73015,5.03118 -2.36407,1.00426 -9.52041,4.20022 -15.90298,7.10212 -6.38257,2.9019 -14.93257,6.01651 -19,6.92136 -16.64329,3.70247 -43.86257,4.51116 -60.60882,1.80069 -9.24246,-1.49595 -10.5898,-1.9703 -11.36149,-4 -1.16683,-3.069 -6.84853,-3.25616 -8.703,-0.28669 -1.14444,1.83254 -1.50777,1.88969 -3.99055,0.62775 -1.50231,-0.76359 -7.728,-3.00966 -13.83487,-4.99128 C 289.64892,400.99977 271.73442,390.57754 252.95769,372 230.03827,349.32372 218.50558,317.39387 215.03292,267 213.89282,250.4554 212.92686,249.09717 205.91366,254.17751 196.86992,260.72875 170.23038,274 166.12371,274 c -0.84231,0 -5.73427,2.04454 -10.87101,4.54342 -9.96608,4.84821 -15.73185,9.73186 -18.58278,15.73974 -0.97006,2.04426 -2.10264,3.71684 -2.51684,3.71684 -1.3315,0 -10.89168,13.12784 -10.89168,11.41055 0,-2.85171 10.42375,-29.59479 16.26223,-37.11636 10.83398,-13.95715 7.92669,-7.86751 8.04265,-11.26403 0.0663,-1.94159 1.39852,-6.90516 2.96051,-11.03016 2.39464,-6.32391 2.8554,-9.0826 2.93832,-17.59239 0.0719,-7.38494 0.52247,-10.7397 1.67933,-12.50531 0.97474,-1.48763 1.39787,-3.66066 1.10344,-5.66676 -0.26266,-1.78962 -0.009,-3.81854 0.56387,-4.50871 0.73272,-0.88288 0.49324,-3.62216 -0.80788,-9.24084 -2.07921,-8.97873 -3.79398,-11.01451 -16.0142,-19.01209 -11.70648,-7.66136 -18.17664,-10.4733 -24.11337,-10.47969 -2.95697,-0.003 -7.8513,-0.4067 -10.8763,-0.8967 -3.025,-0.49 -10.324761,-1.21528 -16.221691,-1.61173 l -10.721691,-0.72082 -3.599838,7.86752 c -1.979911,4.32714 -4.754343,11.87195 -6.165405,16.76625 -2.412137,8.36656 -2.532428,9.83175 -2.01144,24.5 0.378929,10.66862 1.170995,17.97254 2.505191,23.10127 1.073086,4.125 2.264011,9.3 2.6465,11.5 0.77066,4.43267 4.267829,13.70797 8.765111,23.24708 8.186462,17.36417 36.137693,37.17581 50.067033,35.48717 C 135.527,309.59619 137,311.16802 137,317.42244 137,323.60748 135.85326,325 130.75987,325 c -3.20022,0 -4.45832,-0.66923 -7.55,-4.01615 -2.86772,-3.10447 -5.83286,-4.81493 -13.06213,-7.53497 C 95.437562,307.91412 91.01838,305.27967 83.485524,297.55452 75.467243,289.33154 72.117603,283.53646 65.233993,265.97825 57.030206,245.05263 54.744809,233.18691 53.007752,202.5 c -0.622663,-11 -1.816229,-24.07341 -2.652368,-29.05201 -1.354443,-8.06473 -1.356686,-9.8423 -0.02057,-16.29783 0.824825,-3.9852 2.076491,-7.94082 2.781479,-8.79028 1.105303,-1.33181 4.386897,-1.48891 23.832752,-1.14095 22.323489,0.39946 22.645675,0.43612 31.941345,3.634 9.23705,3.17772 15.29167,4.17872 46.04198,7.61206 7.3878,0.82486 13.87967,1.94705 14.42637,2.49375 0.65867,0.65867 0.46777,1.59235 -0.56586,2.76763 C 166.46714,166.37084 163,173.64416 163,175.8786 c 0,2.91721 5.88016,6.1214 11.23368,6.1214 5.92492,0 17.57985,5.75568 21.16021,10.44977 1.43391,1.87995 3.86855,6.55778 5.41031,10.39517 1.54176,3.8374 3.42126,7.7218 4.17667,8.63201 2.7704,3.33813 9.48778,5.83277 23.28418,8.64709 3.86043,0.78749 6.13856,0.59024 12,-1.03901 16.07552,-4.46836 39.48007,-3.58403 61.73495,2.33265 35.84859,9.53068 57.09082,16.38097 71.5,23.05762 18.14652,8.40838 32.59713,14.5247 34.31655,14.5247 1.5539,0 2.15636,-0.8802 2.66562,-3.89444 1.63517,-9.67849 10.74972,-22.99559 19.3962,-28.3394 3.91488,-2.41954 13.64669,-3.36677 15.87163,-1.54485 1.97966,1.62107 1.46659,4.22803 -1.34899,6.85438 -1.42944,1.33337 -3.79194,4.67431 -5.25,7.42431 -2.48094,4.67924 -2.65101,5.84537 -2.65101,18.17758 0,11.82928 0.21509,13.46637 2.10215,16 1.15618,1.55233 3.30143,3.24952 4.76723,3.77152 5.2185,1.85844 80.57127,-2.82602 96.40904,-5.99347 4.00313,-0.8006 10.07813,-1.44813 13.5,-1.43896 5.52177,0.0148 7.06519,0.50858 13.72158,4.38996 11.73834,6.8447 12.38273,7.6575 11.64753,14.69155 -0.54067,5.17282 -0.4026,5.90098 1.1178,5.89505 3.24229,-0.0127 19.03635,-10.22103 24.55162,-15.86877 10.56403,-10.81776 18.43532,-20.02648 21.20323,-24.80594 5.46746,-9.44087 5.76324,-9.58905 5.02599,-2.51799 -0.78207,7.50088 -4.23144,23.74288 -5.57586,26.25495 -0.52366,0.97847 -2.59117,6.42877 -4.59446,12.11178 -2.00329,5.683 -3.97948,10.78274 -4.39153,11.33274 -1.01097,1.34945 -9.42904,22.88404 -11.12645,28.463 -1.23412,4.05628 -1.72175,4.5379 -5.35073,5.28483 -7.6766,1.58004 -15.57766,5.04727 -17.96386,7.88311 -1.31335,1.56082 -3.31803,5.43238 -4.45484,8.60346 -1.13681,3.17108 -2.73879,6.8906 -3.55996,8.2656 -0.82116,1.375 -2.20411,4.075 -3.07323,6 -0.86911,1.925 -2.28791,5.075 -3.15289,7 -0.86498,1.925 -3.35204,6.57232 -5.52682,10.32737 -2.17477,3.75505 -3.74243,7.03907 -3.48369,7.29782 0.25875,0.25874 2.0296,-1.35108 3.93523,-3.57737 3.35847,-3.92362 6.79577,-5.34815 6.75096,-2.79782 -0.065,3.69831 -7.27125,15.74814 -13.62178,22.77742 -1.79158,1.98307 -4.92482,6.72565 -6.96276,10.53908 -4.92026,9.20689 -6.80905,11.86877 -13.25722,18.6835 -5.41705,5.72498 -8.13628,7.1346 -8.13628,4.21774 0,-2.24934 6.03367,-17.70386 7.63123,-19.54648 0.75282,-0.86831 1.36877,-1.97639 1.36877,-2.46241 0,-0.48602 -2.24419,1.32678 -4.9871,4.02844 -5.37217,5.2914 -8.36947,12.53969 -7.33343,17.73426 0.93452,4.68555 -8.55304,17.35473 -24.17233,32.27845 -17.81069,17.01753 -18.21724,17.2347 -28.91046,15.44335 z m 72.33523,-75.84772 C 546.0801,407.6744 545.34643,406.02454 542,410 c -1.62041,1.925 -2.9583,3.8375 -2.9731,4.25 -0.0605,1.68707 1.96559,0.56928 3.90501,-2.15437 z M 392.5,400.6378 c 9.20735,-1.98257 10.20451,-2.78866 10.9743,-8.87157 1.409,-11.13388 3.73329,-20.56852 6.96358,-28.26623 3.46187,-8.24957 5.30796,-16.92101 3.8007,-17.85255 -0.47156,-0.29144 -4.14913,6.00519 -8.17238,13.99252 -8.44888,16.77348 -16.12142,27.6301 -24.88273,35.20897 -3.40091,2.94192 -6.18347,5.75442 -6.18347,6.25 0,1.31463 10.54333,1.0368 17.5,-0.46114 z M 552,397.88197 c 0,-0.55 -0.45,-0.72189 -1,-0.38197 -0.55,0.33992 -1,1.06803 -1,1.61803 0,0.55 0.45,0.72189 1,0.38197 0.55,-0.33992 1,-1.06803 1,-1.61803 z M 358.40917,395.9481 c 9.38685,-3.51207 23.10112,-18.97012 27.81725,-31.35423 9.79094,-25.71004 10.7764,-30.04964 10.76594,-47.40925 -0.006,-9.57138 -0.46683,-14.15723 -1.87857,-18.68462 -2.89587,-9.28698 -5.61986,-14.76168 -8.74895,-17.58374 -40.22032,-21.70653 -191.32907,-105.88853 -128.32881,65.00736 3.86277,11.60672 7.76833,17.72776 16.53863,25.92042 4.50767,4.21078 8.48738,8.62006 8.84381,9.79841 0.65817,2.17594 5.75847,4.98426 7.3103,4.02518 0.46721,-0.28875 6.94316,1.66374 14.391,4.33887 17.26158,6.20005 24.91468,7.81077 37.59272,7.91197 7.9965,0.0638 11.40249,-0.36371 15.69668,-1.97037 z m 163.959,-58.1981 c 2.35243,-3.09536 11.18335,-18.84355 16.25923,-28.9951 2.61043,-5.22074 3.05295,-8.70676 1.1226,-8.84335 -5.01298,-0.3547 -23.59912,0.3224 -29.75,1.08382 -4.125,0.51063 -16.01511,1.68024 -26.42246,2.59913 -20.14613,1.77875 -23.73675,2.38314 -24.30615,4.09132 -0.39893,1.1968 4.32607,4.78677 14.23323,10.81418 3.6161,2.2 12.29438,7.7748 19.28506,12.38844 13.14408,8.67471 15.80196,9.83594 22.90943,10.0092 3.62176,0.0883 4.53871,-0.3445 6.66906,-3.14764 z M 266.00497,251 c -4.05599,0 -8.16617,4.55744 -10.25497,11.37088 -2.43012,7.92681 -2.20512,11.66111 1.20197,19.94864 1.62358,3.94926 3.27342,8.53048 3.6663,10.18048 0.39288,1.65 1.52961,4.8 2.52607,7 18.57503,15.32712 9.58643,-48.45928 2.86063,-48.5 z m 14.6617,234.33333 c -0.36667,-0.36666 -0.66422,-3.17916 -0.66123,-6.25 0.005,-4.68809 0.7501,-7.01562 4.64969,-14.51612 C 292.19731,450.06055 301.28327,443 312.40919,443 c 5.98368,0 9.88028,1.4524 12.92613,4.81804 1.7742,1.96046 1.77413,2.05238 -0.002,2.98288 -1.00813,0.52805 -4.20514,1.46119 -7.10448,2.07364 -8.56131,1.80849 -14.40007,5.30114 -17.16621,10.26852 -1.33441,2.39631 -3.71015,5.97041 -5.27943,7.94245 -1.56928,1.97205 -3.32899,5.3086 -3.91048,7.41457 -0.58148,2.10596 -2.02814,4.64 -3.2148,5.63119 -2.14344,1.79038 -6.71489,2.47805 -7.99089,1.20204 z M 142.25218,467.5 c 0.0111,-2.2 0.21589,-2.98225 0.45508,-1.73834 0.23919,1.24391 0.23011,3.04391 -0.0202,4 -0.25029,0.95609 -0.446,-0.0617 -0.4349,-2.26166 z m -7.09429,0.5 c 0,-1.375 0.22698,-1.9375 0.50439,-1.25 0.27741,0.6875 0.27741,1.8125 0,2.5 -0.27741,0.6875 -0.50439,0.125 -0.50439,-1.25 z m -1.12748,-4.62756 c -0.048,-1.77896 2.69691,-3.58342 4.67155,-3.07102 1.44163,0.37409 1.3619,0.48957 -0.40227,0.58258 -1.21017,0.0638 -2.65899,0.9035 -3.21959,1.866 -0.56061,0.9625 -1.03297,1.2426 -1.04969,0.62244 z m 50.20633,-51.00685 c -5.25211,-5.29424 -5.47683,-5.71687 -3.72203,-7 1.02715,-0.75108 2.28675,-1.36559 2.79911,-1.36559 0.51236,0 3.68885,-2.84398 7.05887,-6.31996 C 196.25242,391.61544 202.50557,387 204.84235,387 206.38439,387 209,392.36457 209,395.52726 209,398.63982 204.06502,404 201.19937,404 c -1.07497,0 -2.51468,0.675 -3.19937,1.5 -0.68469,0.825 -2.08979,1.5 -3.12244,1.5 -2.39629,0 -2.57607,4.57067 -0.2796,7.10825 2.00845,2.21931 1.04419,3.89175 -2.24382,3.89175 -1.7433,0 -4.26256,-1.74865 -8.1174,-5.63441 z M 159.2,400.8 c -0.66,-0.66 -1.2,-1.71526 -1.2,-2.34501 0,-0.62976 -0.88071,-1.94205 -1.95714,-2.9162 -2.36454,-2.13988 -5.88574,-12.33555 -6.99693,-20.25965 -0.44572,-3.17853 -0.49427,-9.15414 -0.10789,-13.27914 0.38638,-4.125 0.37547,-8.85 -0.0242,-10.5 -0.39972,-1.65 -1.23711,-5.25 -1.86087,-8 -0.62376,-2.75 -2.30091,-8.77701 -3.72701,-13.39335 -2.17246,-7.03233 -2.50154,-9.6015 -2.02943,-15.8439 C 141.97322,305.31479 143.57258,303 149.07826,303 c 2.60514,0 4.72795,0.8075 6.87732,2.61608 3.81151,3.20717 10.43365,12.53154 15.54189,21.88392 2.10287,3.85 5.82256,9.82212 8.266,13.27139 3.73613,5.27408 4.31582,6.7053 3.64534,9 -1.239,4.24042 -1.08093,4.72861 1.53106,4.72861 1.93562,0 3.17564,1.27011 6,6.1456 1.95807,3.38008 4.34763,7.01551 5.31013,8.07874 2.14639,2.37102 2.25709,4.86709 0.25,5.63729 -0.825,0.31658 -1.5,1.45908 -1.5,2.53889 0,1.90506 -4.725,6.09948 -6.87104,6.09948 -0.58426,0 -2.70887,-1.64658 -4.72135,-3.65906 l -3.65906,-3.65905 -1.73644,2.30206 c -1.33409,1.76864 -2.3319,2.1526 -4.30626,1.65707 -2.01752,-0.50636 -2.70597,-0.21599 -3.20334,1.35108 -0.95893,3.02131 -3.3684,5.0079 -6.07394,5.0079 -1.33571,0 -2.42857,0.45 -2.42857,1 0,0.55 1.7449,1 3.87756,1 4.3366,0 5.57219,1.0773 6.42756,5.60417 1.02231,5.41032 -2.81136,7.09969 -7.13882,3.14583 l -2.46261,-2.25 0.60631,2.44796 C 163.87293,399.22082 162.64484,402 161.07756,402 160.7049,402 159.86,401.46 159.2,400.8 Z"
       id="path3727"
       inkscape:connector-curvature="0"
       transform="translate(-1.1378482,-6.8270703)"
       sodipodi:nodetypes="ssccsscccsscscssccccsscscccsccscsccsscccssscssccsccsccsccscscsccsccsscssccccsscccscccssssssssccccsccsccccsccccscscscccscsscccsscccsccscccssscssccsscsscsssscsssccssccccccscsscscsscsscssscsccccsscsscssssssssssssssssssssscsssscsssssccsscsccsssccssscsccccsccscccccscscscssscsccscscsssssssssssccccscsscsssccscsscscsssccccsscccsccccccscccsssscscccscssssssscsssscsscsscsccscssscssccccssssccccss" />
  </g>
</svg>
